#N canvas 165 159 1218 862 12;
#X obj 241 589 output~;
#X obj 317 605 tgl 18 0 THIS_IS_HERE_TO_GET_RID_OF_THE_OUTLET \$0-dsp-toggle dsp 2 9 1 9 #d8fcd8 #bcbcbc #202020 0 1;
#N canvas 366 514 482 356 dsp 0;
#X obj 11 7 inlet;
#X obj 92 226 select 0 1;
#X msg 125 248 6;
#X obj 92 57 route dsp;
#X obj 92 36 receive pd;
#X obj 206 138 loadbang;
#X msg 11 220 dsp \$1;
#X obj 11 245 send pd;
#X msg 206 278 set \$1;
#X obj 206 174 value GLOBAL_PDDP_DSP;
#X msg 109 278 color \$1 20 12;
#X obj 180 309 send \$0-dsp-toggle;
#X obj 92 115 change;
#X msg 92 247 0;
#X connect 0 0 6 0;
#X connect 0 0 12 0;
#X connect 1 0 13 0;
#X connect 1 1 2 0;
#X connect 2 0 10 0;
#X connect 3 0 12 0;
#X connect 4 0 3 0;
#X connect 5 0 9 0;
#X connect 6 0 7 0;
#X connect 8 0 11 0;
#X connect 9 0 8 0;
#X connect 9 0 1 0;
#X connect 10 0 11 0;
#X connect 12 0 8 0;
#X connect 12 0 1 0;
#X connect 12 0 9 0;
#X connect 13 0 10 0;
#X restore 317 624 pd dsp logic;
#X msg 287 367 0;
#X obj 205 95 mrpeach/udpreceive 9001;
#X obj 205 128 mrpeach/unpackOSC;
#X obj 240 477 osc~;
#X obj 240 529 *~;
#X floatatom 205 326 5 0 0 0 - - - 0;
#X floatatom 305 261 5 0 0 0 - - - 0;
#X obj 287 329 del;
#X obj 205 169 mrpeach/routeOSC /note /delay;
#X text 537 166 <-- Routing note and on/off messages;
#X obj 284 218 bng 19 250 50 0 empty empty empty 0 -10 0 12 #fcfcfc #000000 #000000;
#X connect 1 0 2 0;
#X connect 3 0 6 0;
#X connect 4 0 5 0;
#X connect 5 0 11 0;
#X connect 6 0 7 0;
#X connect 7 0 0 0;
#X connect 7 0 0 1;
#X connect 8 0 6 0;
#X connect 9 0 10 1;
#X connect 10 0 3 0;
#X connect 11 0 8 0;
#X connect 11 1 9 0;
#X connect 11 1 13 0;
#X connect 13 0 10 0;
